<?xml version="1.0" encoding="utf-8"?>
<!-- Generator: Adobe Illustrator 17.1.0, SVG Export Plug-In . SVG Version: 6.00 Build 0)  -->
<!DOCTYPE svg PUBLIC "-//W3C//DTD SVG 1.1//EN" "http://www.w3.org/Graphics/SVG/1.1/DTD/svg11.dtd">
<svg version="1.1" id="Layer_1" xmlns="http://www.w3.org/2000/svg" xmlns:xlink="http://www.w3.org/1999/xlink" x="0px" y="0px"
	 viewBox="0 0 238.2 54.9" style="enable-background:new 0 0 238.2 54.9;" xml:space="preserve">
<style type="text/css">
	.st0{fill:#00609C;}
	.st1{fill:#646569;}
	.st2{fill:#C4D600;}
</style>
<g>
	<path class="st0" d="M68.2,35.4h-3.5V7.5h4c8.6,0,11.2,3,11.2,8.1c0,5.9-4.5,8.1-9.8,8.1h-2V35.4z M68.2,20.6h1.1
		c3.6,0,7.4-0.7,7.4-5.1c0-4.4-4.1-4.9-7.6-4.9h-0.9V20.6z"/>
	<path class="st0" d="M101.5,35.4h-4.2l-8.2-11.8h-1.4v11.8h-3.5V7.5h4.2c2.5,0,5.1,0,7.4,1.3c2.3,1.4,3.7,4,3.7,6.7
		c0,4-2.7,7.3-6.7,7.8L101.5,35.4z M87.6,20.8h1.1c3.6,0,7.4-0.7,7.4-5.1c0-4.4-4.1-5-7.6-5h-0.9V20.8z"/>
	<path class="st0" d="M131.2,21.5c0,8.3-6.5,14.5-14.6,14.5s-14.6-6.3-14.6-14.5c0-8,6.6-14.5,14.6-14.5
		C124.5,6.9,131.2,13.5,131.2,21.5z M127.7,21.5c0-6.1-4.6-11.3-11.1-11.3c-6.5,0-11.1,5.1-11.1,11.3c0,6.4,5.1,11.3,11.1,11.3
		C122.6,32.8,127.7,27.9,127.7,21.5z"/>
	<path class="st0" d="M140.4,17L140.4,17L137,35.4h-3.6l5.7-29.1l9.6,22l9.6-22l5.7,29.1h-3.6L157.2,17h-0.1l-8.4,19L140.4,17z"/>
	<path class="st0" d="M172.9,28.4l-3.2,7H166l13.3-29.1l13.3,29.1h-3.7l-3.2-7H172.9z M179.3,14l-5,11.3h9.9L179.3,14z"/>
	<path class="st0" d="M213.4,35.4h-4.2L201,23.6h-1.4v11.8h-3.5V7.5h4.2c2.5,0,5.1,0,7.4,1.3c2.3,1.4,3.7,4,3.7,6.7
		c0,4-2.7,7.3-6.7,7.8L213.4,35.4z M199.6,20.8h1.1c3.6,0,7.4-0.7,7.4-5.1c0-4.4-4.1-5-7.6-5h-0.9V20.8z"/>
	<path class="st0" d="M232.6,7.5h4.6l-12.5,12.5l12.8,15.4h-4.7l-10.5-13l-1.4,1.3v11.7h-3.5V7.5h3.5v12.1L232.6,7.5z"/>
</g>
<g>
	<path class="st1" d="M66.6,52.4l-1,2.4h-1l3.8-8.7l3.7,8.7h-1l-1-2.4H66.6z M68.4,48.2L67,51.5h2.8L68.4,48.2z"/>
	<path class="st1" d="M82.9,48.3c-0.7-0.7-1.6-1.1-2.5-1.1c-1.8,0-3.3,1.6-3.3,3.4c0,1.8,1.5,3.4,3.4,3.4c0.9,0,1.8-0.4,2.5-1.1v1.1
		c-0.7,0.5-1.6,0.8-2.5,0.8c-2.3,0-4.3-1.9-4.3-4.3c0-2.4,1.9-4.3,4.3-4.3c0.9,0,1.7,0.3,2.5,0.8V48.3z"/>
	<path class="st1" d="M89.2,54.7h-0.9V54h0c-0.5,0.6-1.1,0.9-1.8,0.9c-1.5,0-2.5-1.3-2.5-2.7c0-1.5,0.9-2.7,2.5-2.7
		c0.7,0,1.3,0.3,1.8,0.9h0v-0.7h0.9V54.7z M84.9,52.1c0,1,0.6,2,1.7,2c1.1,0,1.7-0.9,1.7-2c0-1-0.6-1.9-1.7-1.9
		C85.6,50.2,84.9,51.1,84.9,52.1z"/>
	<path class="st1" d="M91.7,50.1L91.7,50.1c0.3-0.4,0.6-0.7,1.2-0.7c0.3,0,0.5,0.1,0.8,0.2l-0.4,0.8c-0.2-0.1-0.3-0.2-0.5-0.2
		c-1,0-1,1.2-1,1.9v2.6h-0.9v-5.2h0.9V50.1z"/>
	<path class="st1" d="M95.1,52.3c0,1,0.7,1.7,1.7,1.7c0.7,0,1.2-0.5,1.6-1.1l0.7,0.4c-0.5,0.9-1.3,1.5-2.4,1.5
		c-1.5,0-2.5-1.2-2.5-2.7c0-1.5,0.9-2.8,2.5-2.8c1.7,0,2.5,1.4,2.5,2.9H95.1z M98.2,51.6c-0.1-0.7-0.7-1.4-1.5-1.4
		c-0.8,0-1.5,0.6-1.6,1.4H98.2z"/>
	<path class="st1" d="M100.8,52.3c0,1,0.7,1.7,1.7,1.7c0.7,0,1.2-0.5,1.6-1.1l0.7,0.4c-0.5,0.9-1.3,1.5-2.4,1.5
		c-1.5,0-2.5-1.2-2.5-2.7c0-1.5,0.9-2.8,2.5-2.8c1.7,0,2.5,1.4,2.5,2.9H100.8z M104,51.6c-0.1-0.7-0.7-1.4-1.5-1.4
		c-0.8,0-1.5,0.6-1.6,1.4H104z"/>
	<path class="st1" d="M107,50.1L107,50.1c0.3-0.4,0.6-0.7,1.2-0.7c0.3,0,0.5,0.1,0.8,0.2l-0.4,0.8c-0.2-0.1-0.3-0.2-0.5-0.2
		c-1,0-1,1.2-1,1.9v2.6h-0.9v-5.2h0.9V50.1z"/>
	<path class="st1" d="M114.3,54.7h-0.9v-8.3h1.4c0.7,0,1.5,0,2.1,0.4c0.6,0.4,0.9,1.2,0.9,1.9c0,0.7-0.3,1.4-0.8,1.8
		c-0.6,0.5-1.3,0.5-2,0.5h-0.7V54.7z M114.3,50.2h0.6c1,0,1.9-0.3,1.9-1.5c0-1.4-1.1-1.5-2.2-1.5h-0.3V50.2z"/>
	<path class="st1" d="M123.6,54.7h-0.9V54h0c-0.5,0.6-1.1,0.9-1.8,0.9c-1.5,0-2.5-1.3-2.5-2.7c0-1.5,0.9-2.7,2.5-2.7
		c0.7,0,1.3,0.3,1.8,0.9h0v-0.7h0.9V54.7z M119.4,52.1c0,1,0.6,2,1.7,2c1.1,0,1.7-0.9,1.7-2c0-1-0.6-1.9-1.7-1.9
		C120,50.2,119.4,51.1,119.4,52.1z"/>
	<path class="st1" d="M126.2,50.1L126.2,50.1c0.3-0.4,0.6-0.7,1.2-0.7c0.3,0,0.5,0.1,0.8,0.2l-0.4,0.8c-0.2-0.1-0.3-0.2-0.5-0.2
		c-1,0-1,1.2-1,1.9v2.6h-0.9v-5.2h0.9V50.1z"/>
	<path class="st1" d="M130.2,54.7h-0.9v-4.4h-0.5v-0.8h0.5v-1.9h0.9v1.9h0.9v0.8h-0.9V54.7z"/>
	<path class="st1" d="M132.9,50.2L132.9,50.2c0.4-0.5,0.9-0.8,1.5-0.8c1.4,0,1.8,1,1.8,2.2v3.1h-0.9v-2.9c0-0.8-0.1-1.6-1.1-1.6
		c-1.2,0-1.3,1.1-1.3,2v2.5H132v-5.2h0.9V50.2z"/>
	<path class="st1" d="M138.3,52.3c0,1,0.7,1.7,1.7,1.7c0.7,0,1.2-0.5,1.6-1.1l0.7,0.4c-0.5,0.9-1.3,1.5-2.4,1.5
		c-1.5,0-2.5-1.2-2.5-2.7c0-1.5,0.9-2.8,2.5-2.8c1.7,0,2.5,1.4,2.5,2.9H138.3z M141.4,51.6c-0.1-0.7-0.7-1.4-1.5-1.4
		c-0.8,0-1.5,0.6-1.6,1.4H141.4z"/>
	<path class="st1" d="M144.4,50.1L144.4,50.1c0.3-0.4,0.6-0.7,1.2-0.7c0.3,0,0.5,0.1,0.8,0.2l-0.4,0.8c-0.2-0.1-0.3-0.2-0.5-0.2
		c-1,0-1,1.2-1,1.9v2.6h-0.9v-5.2h0.9V50.1z"/>
	<path class="st1" d="M149.4,50.8c-0.1-0.3-0.4-0.5-0.7-0.5c-0.3,0-0.6,0.2-0.6,0.6c0,0.5,0.6,0.6,1.2,0.9c0.6,0.3,1.2,0.6,1.2,1.5
		c0,1-0.8,1.7-1.7,1.7c-0.9,0-1.6-0.5-1.8-1.3l0.8-0.3c0.2,0.5,0.5,0.8,1.1,0.8c0.5,0,0.8-0.3,0.8-0.8c0-1.2-2.3-0.8-2.3-2.4
		c0-0.9,0.7-1.5,1.5-1.5c0.6,0,1.1,0.4,1.4,1L149.4,50.8z"/>
	<path class="st1" d="M156.2,54.7h-0.9v-8.3h0.9V54.7z"/>
	<path class="st1" d="M158.8,50.2L158.8,50.2c0.4-0.5,0.9-0.8,1.5-0.8c1.4,0,1.8,1,1.8,2.2v3.1h-0.9v-2.9c0-0.8-0.1-1.6-1.1-1.6
		c-1.2,0-1.3,1.1-1.3,2v2.5h-0.9v-5.2h0.9V50.2z"/>
	<path class="st1" d="M164.7,54.7h-0.9v-4.4h-0.5v-0.8h0.5v-1.9h0.9v1.9h0.9v0.8h-0.9V54.7z"/>
	<path class="st1" d="M166.9,52.3c0,1,0.7,1.7,1.7,1.7c0.7,0,1.2-0.5,1.6-1.1l0.7,0.4c-0.5,0.9-1.3,1.5-2.4,1.5
		c-1.5,0-2.5-1.2-2.5-2.7c0-1.5,0.9-2.8,2.5-2.8c1.7,0,2.5,1.4,2.5,2.9H166.9z M170,51.6c-0.1-0.7-0.7-1.4-1.5-1.4
		c-0.8,0-1.5,0.6-1.6,1.4H170z"/>
	<path class="st1" d="M173.1,50.1L173.1,50.1c0.3-0.4,0.6-0.7,1.2-0.7c0.3,0,0.5,0.1,0.8,0.2l-0.4,0.8c-0.2-0.1-0.3-0.2-0.5-0.2
		c-1,0-1,1.2-1,1.9v2.6h-0.9v-5.2h0.9V50.1z"/>
	<path class="st1" d="M176.9,50.2L176.9,50.2c0.4-0.5,0.9-0.8,1.5-0.8c1.4,0,1.8,1,1.8,2.2v3.1h-0.9v-2.9c0-0.8-0.1-1.6-1.1-1.6
		c-1.2,0-1.3,1.1-1.3,2v2.5h-0.9v-5.2h0.9V50.2z"/>
	<path class="st1" d="M186.6,54.7h-0.9V54h0c-0.5,0.6-1.1,0.9-1.8,0.9c-1.5,0-2.5-1.3-2.5-2.7c0-1.5,0.9-2.7,2.5-2.7
		c0.7,0,1.3,0.3,1.8,0.9h0v-0.7h0.9V54.7z M182.4,52.1c0,1,0.6,2,1.7,2c1.1,0,1.7-0.9,1.7-2c0-1-0.6-1.9-1.7-1.9
		C183,50.2,182.4,51.1,182.4,52.1z"/>
	<path class="st1" d="M189.2,54.7h-0.9v-4.4h-0.5v-0.8h0.5v-1.9h0.9v1.9h0.9v0.8h-0.9V54.7z"/>
	<path class="st1" d="M192.3,47.6c0,0.4-0.3,0.6-0.6,0.6c-0.3,0-0.6-0.3-0.6-0.6c0-0.3,0.3-0.6,0.6-0.6
		C192,47,192.3,47.3,192.3,47.6z M192.1,54.7h-0.9v-5.2h0.9V54.7z"/>
	<path class="st1" d="M193.5,52.2c0-1.5,1.2-2.7,2.7-2.7c1.5,0,2.7,1.2,2.7,2.7c0,1.5-1.2,2.7-2.7,2.7
		C194.7,54.9,193.5,53.7,193.5,52.2z M194.4,52.1c0,1.1,0.7,1.9,1.8,1.9c1.1,0,1.8-0.9,1.8-1.9c0-1-0.7-1.9-1.8-1.9
		C195.1,50.2,194.4,51.1,194.4,52.1z"/>
	<path class="st1" d="M201.1,50.2L201.1,50.2c0.4-0.5,0.9-0.8,1.5-0.8c1.4,0,1.8,1,1.8,2.2v3.1h-0.9v-2.9c0-0.8-0.1-1.6-1.1-1.6
		c-1.2,0-1.3,1.1-1.3,2v2.5h-0.9v-5.2h0.9V50.2z"/>
	<path class="st1" d="M210.8,54.7h-0.9V54h0c-0.5,0.6-1.1,0.9-1.8,0.9c-1.5,0-2.5-1.3-2.5-2.7c0-1.5,0.9-2.7,2.5-2.7
		c0.7,0,1.3,0.3,1.8,0.9h0v-0.7h0.9V54.7z M206.5,52.1c0,1,0.6,2,1.7,2c1.1,0,1.7-0.9,1.7-2c0-1-0.6-1.9-1.7-1.9
		C207.2,50.2,206.5,51.1,206.5,52.1z"/>
	<path class="st1" d="M213.3,54.7h-0.9v-9.1h0.9V54.7z"/>
	<path class="st1" d="M219.4,47.3v2.5h2.8v0.9h-2.8v4.1h-0.9v-8.3h3.8v0.9H219.4z"/>
	<path class="st1" d="M225,47.6c0,0.4-0.3,0.6-0.6,0.6c-0.3,0-0.6-0.3-0.6-0.6c0-0.3,0.3-0.6,0.6-0.6C224.7,47,225,47.3,225,47.6z
		 M224.8,54.7h-0.9v-5.2h0.9V54.7z"/>
	<path class="st1" d="M227.5,50.1L227.5,50.1c0.3-0.4,0.6-0.7,1.2-0.7c0.3,0,0.5,0.1,0.8,0.2l-0.4,0.8c-0.2-0.1-0.3-0.2-0.5-0.2
		c-1,0-1,1.2-1,1.9v2.6h-0.9v-5.2h0.9V50.1z"/>
	<path class="st1" d="M231.4,50.1L231.4,50.1c0.3-0.4,0.7-0.7,1.3-0.7c0.6,0,1.2,0.3,1.4,0.9c0.3-0.6,0.9-0.9,1.6-0.9
		c1.3,0,1.7,1.1,1.7,2.2v3.1h-0.9v-3c0-0.7,0-1.5-0.9-1.5c-1,0-1.1,1-1.1,1.8v2.7h-0.9v-2.9c0-0.6-0.1-1.6-0.9-1.6
		c-1,0-1.1,1-1.1,1.8v2.7h-0.9v-5.2h0.9V50.1z"/>
</g>
<rect x="65.1" y="41" class="st2" width="173.1" height="1.2"/>
<path class="st2" d="M27.3,0C12.2,0,0,12.2,0,27.2c0,15,12.2,27.3,27.3,27.3c15.1,0,27.3-12.2,27.3-27.3C54.5,12.2,42.3,0,27.3,0z
	 M27.3,46.2c-11.5,0-20.9-9.4-20.9-20.9S15.7,4.3,27.3,4.3s20.9,9.4,20.9,20.9S38.8,46.2,27.3,46.2z"/>
<path class="st0" d="M27.3,6.8c-10.2,0-18.4,8.2-18.4,18.4c0,10.2,8.2,18.4,18.4,18.4c10.2,0,18.4-8.2,18.4-18.4
	C45.7,15.1,37.4,6.8,27.3,6.8z M27.3,28.1c-4.8,0-8.7-3.9-8.7-8.7s3.9-8.7,8.7-8.7c4.8,0,8.7,3.9,8.7,8.7S32.1,28.1,27.3,28.1z"/>
</svg>
